<svg width="100" height="162" viewBox="0 0 100 162" fill="none" xmlns="http://www.w3.org/2000/svg">
<rect width="100" height="161.8" fill="#3793CB"/>
<rect x="19" y="17" width="61.8047" height="100" fill="white"/>
<path d="M16.1765 123.273H18.0217V128.94C18.0217 129.577 17.8697 130.134 17.5657 130.611C17.2646 131.088 16.8427 131.46 16.3001 131.727C15.7575 131.991 15.1254 132.124 14.4038 132.124C13.6793 132.124 13.0458 131.991 12.5032 131.727C11.9606 131.46 11.5387 131.088 11.2376 130.611C10.9364 130.134 10.7859 129.577 10.7859 128.94V123.273H12.631V128.783C12.631 129.115 12.7035 129.411 12.8484 129.669C12.9961 129.928 13.2035 130.131 13.4705 130.278C13.7376 130.426 14.0487 130.5 14.4038 130.5C14.7617 130.5 15.0728 130.426 15.337 130.278C15.604 130.131 15.81 129.928 15.9549 129.669C16.1026 129.411 16.1765 129.115 16.1765 128.783V123.273ZM21.321 128.216V132H19.5057V125.455H21.2358V126.609H21.3125C21.4574 126.229 21.7003 125.928 22.0412 125.706C22.3821 125.482 22.7955 125.369 23.2812 125.369C23.7358 125.369 24.1321 125.469 24.4702 125.668C24.8082 125.866 25.071 126.151 25.2585 126.52C25.446 126.886 25.5398 127.324 25.5398 127.832V132H23.7244V128.156C23.7273 127.756 23.625 127.443 23.4176 127.219C23.2102 126.991 22.9247 126.878 22.5611 126.878C22.3168 126.878 22.1009 126.93 21.9134 127.036C21.7287 127.141 21.5838 127.294 21.4787 127.496C21.3764 127.695 21.3239 127.935 21.321 128.216ZM28.837 132.124C28.4194 132.124 28.0472 132.051 27.7205 131.906C27.3938 131.759 27.1353 131.541 26.945 131.254C26.7575 130.964 26.6637 130.604 26.6637 130.172C26.6637 129.808 26.7305 129.503 26.864 129.256C26.9975 129.009 27.1793 128.81 27.4094 128.659C27.6396 128.509 27.9009 128.395 28.1935 128.318C28.489 128.241 28.7987 128.188 29.1225 128.156C29.5032 128.116 29.81 128.08 30.043 128.045C30.2759 128.009 30.445 127.955 30.5501 127.884C30.6552 127.812 30.7077 127.707 30.7077 127.568V127.543C30.7077 127.273 30.6225 127.064 30.4521 126.916C30.2844 126.768 30.0458 126.695 29.7362 126.695C29.4094 126.695 29.1495 126.767 28.9563 126.912C28.7631 127.054 28.6353 127.233 28.5728 127.449L26.8938 127.312C26.979 126.915 27.1467 126.571 27.3967 126.281C27.6467 125.989 27.9691 125.764 28.364 125.608C28.7617 125.449 29.2219 125.369 29.7447 125.369C30.1083 125.369 30.4563 125.412 30.7887 125.497C31.1239 125.582 31.4208 125.714 31.6793 125.893C31.9407 126.072 32.1467 126.303 32.2972 126.584C32.4478 126.862 32.5231 127.196 32.5231 127.585V132H30.8015V131.092H30.7504C30.6452 131.297 30.5046 131.477 30.3285 131.634C30.1523 131.787 29.9407 131.908 29.6935 131.996C29.4464 132.081 29.1609 132.124 28.837 132.124ZM29.3569 130.871C29.6239 130.871 29.8597 130.818 30.0643 130.713C30.2688 130.605 30.4293 130.46 30.5458 130.278C30.6623 130.097 30.7205 129.891 30.7205 129.661V128.966C30.6637 129.003 30.5856 129.037 30.4862 129.068C30.3896 129.097 30.2802 129.124 30.158 129.149C30.0359 129.172 29.9137 129.193 29.7915 129.213C29.6694 129.23 29.5586 129.246 29.4592 129.26C29.2461 129.291 29.06 129.341 28.9009 129.409C28.7418 129.477 28.6183 129.57 28.5302 129.686C28.4421 129.8 28.3981 129.942 28.3981 130.112C28.3981 130.359 28.4876 130.548 28.6665 130.679C28.8484 130.807 29.0785 130.871 29.3569 130.871ZM38.1289 129.213V125.455H39.9442V132H38.2013V130.811H38.1332C37.9854 131.195 37.7397 131.503 37.396 131.736C37.055 131.969 36.6388 132.085 36.1474 132.085C35.7099 132.085 35.3249 131.986 34.9925 131.787C34.6602 131.588 34.4002 131.305 34.2127 130.939C34.0281 130.572 33.9343 130.134 33.9315 129.622V125.455H35.7468V129.298C35.7496 129.685 35.8533 129.99 36.0579 130.214C36.2624 130.439 36.5366 130.551 36.8803 130.551C37.0991 130.551 37.3036 130.501 37.494 130.402C37.6843 130.3 37.8377 130.149 37.9542 129.95C38.0735 129.751 38.1317 129.506 38.1289 129.213ZM44.8778 125.455V126.818H40.9361V125.455H44.8778ZM41.831 123.886H43.6463V129.989C43.6463 130.156 43.6719 130.287 43.723 130.381C43.7741 130.472 43.8452 130.536 43.9361 130.572C44.0298 130.609 44.1378 130.628 44.2599 130.628C44.3452 130.628 44.4304 130.621 44.5156 130.607C44.6009 130.589 44.6662 130.577 44.7116 130.568L44.9972 131.919C44.9063 131.947 44.7784 131.98 44.6136 132.017C44.4489 132.057 44.2486 132.081 44.0128 132.089C43.5753 132.107 43.1918 132.048 42.8622 131.915C42.5355 131.781 42.2813 131.574 42.0994 131.293C41.9176 131.011 41.8281 130.656 41.831 130.227V123.886ZM48.0163 128.216V132H46.201V123.273H47.9652V126.609H48.0419C48.1896 126.223 48.4283 125.92 48.7578 125.702C49.0874 125.48 49.5007 125.369 49.9979 125.369C50.4524 125.369 50.8487 125.469 51.1868 125.668C51.5277 125.864 51.7919 126.146 51.9794 126.516C52.1697 126.882 52.2635 127.321 52.2607 127.832V132H50.4453V128.156C50.4482 127.753 50.3459 127.439 50.1385 127.214C49.9339 126.99 49.647 126.878 49.2777 126.878C49.0305 126.878 48.8118 126.93 48.6214 127.036C48.4339 127.141 48.2862 127.294 48.1783 127.496C48.0732 127.695 48.0192 127.935 48.0163 128.216ZM56.6467 132.128C55.9847 132.128 55.4123 131.987 54.9293 131.706C54.4492 131.422 54.0785 131.027 53.8171 130.521C53.5558 130.013 53.4251 129.423 53.4251 128.753C53.4251 128.077 53.5558 127.486 53.8171 126.98C54.0785 126.472 54.4492 126.077 54.9293 125.795C55.4123 125.511 55.9847 125.369 56.6467 125.369C57.3086 125.369 57.8796 125.511 58.3597 125.795C58.8427 126.077 59.2148 126.472 59.4762 126.98C59.7376 127.486 59.8683 128.077 59.8683 128.753C59.8683 129.423 59.7376 130.013 59.4762 130.521C59.2148 131.027 58.8427 131.422 58.3597 131.706C57.8796 131.987 57.3086 132.128 56.6467 132.128ZM56.6552 130.722C56.9563 130.722 57.2077 130.636 57.4094 130.466C57.6112 130.293 57.7631 130.057 57.8654 129.759C57.9705 129.46 58.0231 129.121 58.0231 128.74C58.0231 128.359 57.9705 128.02 57.8654 127.722C57.7631 127.423 57.6112 127.187 57.4094 127.014C57.2077 126.841 56.9563 126.754 56.6552 126.754C56.3512 126.754 56.0955 126.841 55.8881 127.014C55.6836 127.187 55.5288 127.423 55.4237 127.722C55.3214 128.02 55.2702 128.359 55.2702 128.74C55.2702 129.121 55.3214 129.46 55.4237 129.759C55.5288 130.057 55.6836 130.293 55.8881 130.466C56.0955 130.636 56.3512 130.722 56.6552 130.722ZM61.0487 132V125.455H62.8086V126.597H62.8768C62.9961 126.19 63.1964 125.884 63.4776 125.676C63.7589 125.466 64.0827 125.361 64.4492 125.361C64.5401 125.361 64.6381 125.366 64.7433 125.378C64.8484 125.389 64.9407 125.405 65.0202 125.425V127.036C64.935 127.01 64.8171 126.987 64.6665 126.967C64.516 126.947 64.3782 126.938 64.2532 126.938C63.9862 126.938 63.7475 126.996 63.5373 127.112C63.3299 127.226 63.1651 127.385 63.043 127.589C62.9237 127.794 62.864 128.03 62.864 128.297V132H61.0487ZM65.9588 132V125.455H67.7741V132H65.9588ZM66.8707 124.611C66.6009 124.611 66.3693 124.521 66.1761 124.342C65.9858 124.161 65.8906 123.943 65.8906 123.69C65.8906 123.44 65.9858 123.226 66.1761 123.047C66.3693 122.865 66.6009 122.774 66.8707 122.774C67.1406 122.774 67.3707 122.865 67.5611 123.047C67.7543 123.226 67.8509 123.44 67.8509 123.69C67.8509 123.943 67.7543 124.161 67.5611 124.342C67.3707 124.521 67.1406 124.611 66.8707 124.611ZM69.1942 132V130.918L72.3988 126.95V126.903H69.305V125.455H74.5849V126.635L71.5763 130.504V130.551H74.6957V132H69.1942ZM78.8793 132.128C78.206 132.128 77.6264 131.991 77.1406 131.719C76.6577 131.443 76.2855 131.054 76.0241 130.551C75.7628 130.045 75.6321 129.447 75.6321 128.757C75.6321 128.084 75.7628 127.493 76.0241 126.984C76.2855 126.476 76.6534 126.08 77.1278 125.795C77.6051 125.511 78.1648 125.369 78.8068 125.369C79.2386 125.369 79.6406 125.439 80.0128 125.578C80.3878 125.714 80.7145 125.92 80.9929 126.196C81.2741 126.472 81.4929 126.818 81.6491 127.236C81.8054 127.651 81.8835 128.136 81.8835 128.693V129.192H76.3565V128.067H80.1747C80.1747 127.805 80.1179 127.574 80.0043 127.372C79.8906 127.17 79.733 127.013 79.5312 126.899C79.3324 126.783 79.1009 126.724 78.8366 126.724C78.5611 126.724 78.3168 126.788 78.1037 126.916C77.8935 127.041 77.7287 127.21 77.6094 127.423C77.4901 127.634 77.429 127.868 77.4261 128.126V129.196C77.4261 129.52 77.4858 129.8 77.6051 130.036C77.7273 130.271 77.8991 130.453 78.1207 130.581C78.3423 130.709 78.6051 130.773 78.9091 130.773C79.1108 130.773 79.2955 130.744 79.4631 130.688C79.6307 130.631 79.7741 130.545 79.8935 130.432C80.0128 130.318 80.1037 130.179 80.1662 130.014L81.8452 130.125C81.7599 130.528 81.5852 130.881 81.321 131.182C81.0597 131.48 80.7216 131.713 80.3068 131.881C79.8949 132.045 79.419 132.128 78.8793 132.128ZM85.4801 132.107C84.983 132.107 84.5327 131.979 84.1293 131.723C83.7287 131.464 83.4105 131.085 83.1747 130.585C82.9418 130.082 82.8253 129.466 82.8253 128.736C82.8253 127.986 82.946 127.362 83.1875 126.865C83.429 126.365 83.75 125.991 84.1506 125.744C84.554 125.494 84.9957 125.369 85.4759 125.369C85.8423 125.369 86.1477 125.432 86.392 125.557C86.6392 125.679 86.8381 125.832 86.9886 126.017C87.142 126.199 87.2585 126.378 87.3381 126.554H87.3935V123.273H89.2045V132H87.4148V130.952H87.3381C87.2528 131.134 87.1321 131.314 86.9759 131.493C86.8224 131.669 86.6222 131.815 86.375 131.932C86.1307 132.048 85.8324 132.107 85.4801 132.107ZM86.0554 130.662C86.348 130.662 86.5952 130.582 86.7969 130.423C87.0014 130.261 87.1577 130.036 87.2656 129.746C87.3764 129.456 87.4318 129.116 87.4318 128.727C87.4318 128.338 87.3778 128 87.2699 127.713C87.1619 127.426 87.0057 127.205 86.8011 127.048C86.5966 126.892 86.348 126.814 86.0554 126.814C85.7571 126.814 85.5057 126.895 85.3011 127.057C85.0966 127.219 84.9418 127.443 84.8366 127.73C84.7315 128.017 84.679 128.349 84.679 128.727C84.679 129.108 84.7315 129.445 84.8366 129.737C84.9446 130.027 85.0994 130.254 85.3011 130.419C85.5057 130.581 85.7571 130.662 86.0554 130.662Z" fill="white"/>
<path d="M39.4425 146.466V145.013L43.0859 139.273H44.3388V141.284H43.5973L41.3004 144.919V144.987H46.478V146.466H39.4425ZM43.6314 148V146.023L43.6655 145.379V139.273H45.3956V148H43.6314ZM51.1293 148.192C50.3963 148.189 49.7656 148.009 49.2372 147.651C48.7116 147.293 48.3068 146.774 48.0227 146.095C47.7415 145.416 47.6023 144.599 47.6051 143.645C47.6051 142.693 47.7457 141.882 48.027 141.212C48.3111 140.541 48.7159 140.031 49.2415 139.682C49.7699 139.33 50.3991 139.153 51.1293 139.153C51.8594 139.153 52.4872 139.33 53.0128 139.682C53.5412 140.034 53.9474 140.545 54.2315 141.216C54.5156 141.884 54.6563 142.693 54.6534 143.645C54.6534 144.602 54.5114 145.42 54.2273 146.099C53.946 146.778 53.5426 147.297 53.017 147.655C52.4915 148.013 51.8622 148.192 51.1293 148.192ZM51.1293 146.662C51.6293 146.662 52.0284 146.411 52.3267 145.908C52.625 145.405 52.7727 144.651 52.7699 143.645C52.7699 142.983 52.7017 142.432 52.5653 141.991C52.4318 141.551 52.2415 141.22 51.9943 140.999C51.75 140.777 51.4616 140.666 51.1293 140.666C50.6321 140.666 50.2344 140.915 49.9361 141.412C49.6378 141.909 49.4872 142.653 49.4844 143.645C49.4844 144.315 49.5511 144.875 49.6847 145.324C49.821 145.77 50.0128 146.105 50.2599 146.33C50.5071 146.551 50.7969 146.662 51.1293 146.662ZM59.766 139.273V148H57.9208V141.024H57.8697L55.8711 142.277V140.641L58.0316 139.273H59.766Z" fill="white"/>
<rect x="31" y="36" width="38.1953" height="61.8" fill="#3793CB"/>
<circle cx="46" cy="70" r="4" fill="white"/>
<circle cx="46" cy="70" r="2" fill="#3793CB"/>
<line x1="47.2106" y1="68.3861" x2="54.2106" y2="59.3861" stroke="white" stroke-width="2"/>
<line x1="53.6" y1="60.2" x2="57.6" y2="63.2" stroke="white" stroke-width="2"/>
<line x1="51.6" y1="63.2" x2="55.6" y2="66.2" stroke="white" stroke-width="2"/>
</svg>
