<svg width="100" height="162" viewBox="0 0 100 162" fill="none" xmlns="http://www.w3.org/2000/svg">
<rect width="100" height="161.8" fill="#3793CB"/>
<rect x="19" y="17" width="61.8047" height="100" fill="white"/>
<path d="M20.9577 132V123.273H26.7362V124.794H22.8029V126.874H26.3526V128.395H22.8029V132H20.9577ZM30.4201 132.128C29.7582 132.128 29.1857 131.987 28.7028 131.706C28.2227 131.422 27.8519 131.027 27.5906 130.521C27.3292 130.013 27.1985 129.423 27.1985 128.753C27.1985 128.077 27.3292 127.486 27.5906 126.98C27.8519 126.472 28.2227 126.077 28.7028 125.795C29.1857 125.511 29.7582 125.369 30.4201 125.369C31.082 125.369 31.6531 125.511 32.1332 125.795C32.6161 126.077 32.9883 126.472 33.2496 126.98C33.511 127.486 33.6417 128.077 33.6417 128.753C33.6417 129.423 33.511 130.013 33.2496 130.521C32.9883 131.027 32.6161 131.422 32.1332 131.706C31.6531 131.987 31.082 132.128 30.4201 132.128ZM30.4286 130.722C30.7298 130.722 30.9812 130.636 31.1829 130.466C31.3846 130.293 31.5366 130.057 31.6388 129.759C31.744 129.46 31.7965 129.121 31.7965 128.74C31.7965 128.359 31.744 128.02 31.6388 127.722C31.5366 127.423 31.3846 127.187 31.1829 127.014C30.9812 126.841 30.7298 126.754 30.4286 126.754C30.1246 126.754 29.869 126.841 29.6616 127.014C29.457 127.187 29.3022 127.423 29.1971 127.722C29.0948 128.02 29.0437 128.359 29.0437 128.74C29.0437 129.121 29.0948 129.46 29.1971 129.759C29.3022 130.057 29.457 130.293 29.6616 130.466C29.869 130.636 30.1246 130.722 30.4286 130.722ZM34.8221 132V125.455H36.582V126.597H36.6502C36.7695 126.19 36.9698 125.884 37.2511 125.676C37.5323 125.466 37.8562 125.361 38.2227 125.361C38.3136 125.361 38.4116 125.366 38.5167 125.378C38.6218 125.389 38.7141 125.405 38.7937 125.425V127.036C38.7085 127.01 38.5906 126.987 38.44 126.967C38.2894 126.947 38.1516 126.938 38.0266 126.938C37.7596 126.938 37.521 126.996 37.3107 127.112C37.1033 127.226 36.9386 127.385 36.8164 127.589C36.6971 127.794 36.6374 128.03 36.6374 128.297V132H34.8221ZM39.7663 132V123.273H41.5817V126.554H41.6371C41.7166 126.378 41.8317 126.199 41.9822 126.017C42.1357 125.832 42.3345 125.679 42.5788 125.557C42.826 125.432 43.1328 125.369 43.4993 125.369C43.9766 125.369 44.4169 125.494 44.8203 125.744C45.2237 125.991 45.5462 126.365 45.7876 126.865C46.0291 127.362 46.1499 127.986 46.1499 128.736C46.1499 129.466 46.032 130.082 45.7962 130.585C45.5632 131.085 45.245 131.464 44.8416 131.723C44.4411 131.979 43.9922 132.107 43.495 132.107C43.1428 132.107 42.843 132.048 42.5959 131.932C42.3516 131.815 42.1513 131.669 41.995 131.493C41.8388 131.314 41.7195 131.134 41.6371 130.952H41.5561V132H39.7663ZM41.5433 128.727C41.5433 129.116 41.5973 129.456 41.7053 129.746C41.8132 130.036 41.9695 130.261 42.174 130.423C42.3786 130.582 42.6271 130.662 42.9197 130.662C43.2152 130.662 43.4652 130.581 43.6697 130.419C43.8743 130.254 44.0291 130.027 44.1342 129.737C44.2422 129.445 44.2962 129.108 44.2962 128.727C44.2962 128.349 44.2436 128.017 44.1385 127.73C44.0334 127.443 43.8786 127.219 43.674 127.057C43.4695 126.895 43.218 126.814 42.9197 126.814C42.6243 126.814 42.3743 126.892 42.1697 127.048C41.968 127.205 41.8132 127.426 41.7053 127.713C41.5973 128 41.5433 128.338 41.5433 128.727ZM47.3612 132V125.455H49.1765V132H47.3612ZM48.2731 124.611C48.0032 124.611 47.7717 124.521 47.5785 124.342C47.3881 124.161 47.293 123.943 47.293 123.69C47.293 123.44 47.3881 123.226 47.5785 123.047C47.7717 122.865 48.0032 122.774 48.2731 122.774C48.543 122.774 48.7731 122.865 48.9634 123.047C49.1566 123.226 49.2532 123.44 49.2532 123.69C49.2532 123.943 49.1566 124.161 48.9634 124.342C48.7731 124.521 48.543 124.611 48.2731 124.611ZM53.0426 132.107C52.5455 132.107 52.0952 131.979 51.6918 131.723C51.2912 131.464 50.973 131.085 50.7372 130.585C50.5043 130.082 50.3878 129.466 50.3878 128.736C50.3878 127.986 50.5085 127.362 50.75 126.865C50.9915 126.365 51.3125 125.991 51.7131 125.744C52.1165 125.494 52.5582 125.369 53.0384 125.369C53.4048 125.369 53.7102 125.432 53.9545 125.557C54.2017 125.679 54.4006 125.832 54.5511 126.017C54.7045 126.199 54.821 126.378 54.9006 126.554H54.956V123.273H56.767V132H54.9773V130.952H54.9006C54.8153 131.134 54.6946 131.314 54.5384 131.493C54.3849 131.669 54.1847 131.815 53.9375 131.932C53.6932 132.048 53.3949 132.107 53.0426 132.107ZM53.6179 130.662C53.9105 130.662 54.1577 130.582 54.3594 130.423C54.5639 130.261 54.7202 130.036 54.8281 129.746C54.9389 129.456 54.9943 129.116 54.9943 128.727C54.9943 128.338 54.9403 128 54.8324 127.713C54.7244 127.426 54.5682 127.205 54.3636 127.048C54.1591 126.892 53.9105 126.814 53.6179 126.814C53.3196 126.814 53.0682 126.895 52.8636 127.057C52.6591 127.219 52.5043 127.443 52.3991 127.73C52.294 128.017 52.2415 128.349 52.2415 128.727C52.2415 129.108 52.294 129.445 52.3991 129.737C52.5071 130.027 52.6619 130.254 52.8636 130.419C53.0682 130.581 53.3196 130.662 53.6179 130.662ZM60.6715 132.107C60.1744 132.107 59.7241 131.979 59.3207 131.723C58.9201 131.464 58.6019 131.085 58.3661 130.585C58.1332 130.082 58.0167 129.466 58.0167 128.736C58.0167 127.986 58.1374 127.362 58.3789 126.865C58.6204 126.365 58.9414 125.991 59.342 125.744C59.7454 125.494 60.1871 125.369 60.6673 125.369C61.0337 125.369 61.3391 125.432 61.5835 125.557C61.8306 125.679 62.0295 125.832 62.18 126.017C62.3335 126.199 62.4499 126.378 62.5295 126.554H62.5849V123.273H64.396V132H62.6062V130.952H62.5295C62.4442 131.134 62.3235 131.314 62.1673 131.493C62.0138 131.669 61.8136 131.815 61.5664 131.932C61.3221 132.048 61.0238 132.107 60.6715 132.107ZM61.2468 130.662C61.5394 130.662 61.7866 130.582 61.9883 130.423C62.1928 130.261 62.3491 130.036 62.457 129.746C62.5678 129.456 62.6232 129.116 62.6232 128.727C62.6232 128.338 62.5692 128 62.4613 127.713C62.3533 127.426 62.1971 127.205 61.9925 127.048C61.788 126.892 61.5394 126.814 61.2468 126.814C60.9485 126.814 60.6971 126.895 60.4925 127.057C60.288 127.219 60.1332 127.443 60.0281 127.73C59.9229 128.017 59.8704 128.349 59.8704 128.727C59.8704 129.108 59.9229 129.445 60.0281 129.737C60.136 130.027 60.2908 130.254 60.4925 130.419C60.6971 130.581 60.9485 130.662 61.2468 130.662ZM68.8714 132.128C68.1982 132.128 67.6186 131.991 67.1328 131.719C66.6499 131.443 66.2777 131.054 66.0163 130.551C65.755 130.045 65.6243 129.447 65.6243 128.757C65.6243 128.084 65.755 127.493 66.0163 126.984C66.2777 126.476 66.6456 126.08 67.12 125.795C67.5973 125.511 68.157 125.369 68.799 125.369C69.2308 125.369 69.6328 125.439 70.005 125.578C70.38 125.714 70.7067 125.92 70.9851 126.196C71.2663 126.472 71.4851 126.818 71.6413 127.236C71.7976 127.651 71.8757 128.136 71.8757 128.693V129.192H66.3487V128.067H70.1669C70.1669 127.805 70.1101 127.574 69.9964 127.372C69.8828 127.17 69.7251 127.013 69.5234 126.899C69.3246 126.783 69.093 126.724 68.8288 126.724C68.5533 126.724 68.3089 126.788 68.0959 126.916C67.8857 127.041 67.7209 127.21 67.6016 127.423C67.4822 127.634 67.4212 127.868 67.4183 128.126V129.196C67.4183 129.52 67.478 129.8 67.5973 130.036C67.7195 130.271 67.8913 130.453 68.1129 130.581C68.3345 130.709 68.5973 130.773 68.9013 130.773C69.103 130.773 69.2876 130.744 69.4553 130.688C69.6229 130.631 69.7663 130.545 69.8857 130.432C70.005 130.318 70.0959 130.179 70.1584 130.014L71.8374 130.125C71.7521 130.528 71.5774 130.881 71.3132 131.182C71.0518 131.48 70.7138 131.713 70.299 131.881C69.8871 132.045 69.4112 132.128 68.8714 132.128ZM74.8757 128.216V132H73.0604V125.455H74.7905V126.609H74.8672C75.0121 126.229 75.255 125.928 75.5959 125.706C75.9368 125.482 76.3501 125.369 76.8359 125.369C77.2905 125.369 77.6868 125.469 78.0249 125.668C78.3629 125.866 78.6257 126.151 78.8132 126.52C79.0007 126.886 79.0945 127.324 79.0945 127.832V132H77.2791V128.156C77.282 127.756 77.1797 127.443 76.9723 127.219C76.7649 126.991 76.4794 126.878 76.1158 126.878C75.8714 126.878 75.6555 126.93 75.468 127.036C75.2834 127.141 75.1385 127.294 75.0334 127.496C74.9311 127.695 74.8786 127.935 74.8757 128.216Z" fill="white"/>
<path d="M38.4229 146.466V145.013L42.0664 139.273H43.3192V141.284H42.5778L40.2809 144.919V144.987H45.4585V146.466H38.4229ZM42.6119 148V146.023L42.646 145.379V139.273H44.3761V148H42.6119ZM50.1097 148.192C49.3768 148.189 48.7461 148.009 48.2177 147.651C47.6921 147.293 47.2873 146.774 47.0032 146.095C46.7219 145.416 46.5827 144.599 46.5856 143.645C46.5856 142.693 46.7262 141.882 47.0075 141.212C47.2915 140.541 47.6964 140.031 48.2219 139.682C48.7504 139.33 49.3796 139.153 50.1097 139.153C50.8398 139.153 51.4677 139.33 51.9933 139.682C52.5217 140.034 52.9279 140.545 53.212 141.216C53.4961 141.884 53.6367 142.693 53.6339 143.645C53.6339 144.602 53.4918 145.42 53.2077 146.099C52.9265 146.778 52.5231 147.297 51.9975 147.655C51.4719 148.013 50.8427 148.192 50.1097 148.192ZM50.1097 146.662C50.6097 146.662 51.0089 146.411 51.3072 145.908C51.6055 145.405 51.7532 144.651 51.7504 143.645C51.7504 142.983 51.6822 142.432 51.5458 141.991C51.4123 141.551 51.2219 141.22 50.9748 140.999C50.7305 140.777 50.4421 140.666 50.1097 140.666C49.6126 140.666 49.2148 140.915 48.9165 141.412C48.6183 141.909 48.4677 142.653 48.4648 143.645C48.4648 144.315 48.5316 144.875 48.6651 145.324C48.8015 145.77 48.9933 146.105 49.2404 146.33C49.4876 146.551 49.7773 146.662 50.1097 146.662ZM58.1754 148.119C57.5391 148.119 56.9723 148.01 56.4751 147.791C55.9808 147.57 55.5902 147.266 55.3033 146.879C55.0192 146.49 54.8729 146.041 54.8643 145.533H56.7223C56.7337 145.746 56.8033 145.933 56.9311 146.095C57.0618 146.254 57.2351 146.378 57.451 146.466C57.6669 146.554 57.9098 146.598 58.1797 146.598C58.4609 146.598 58.7095 146.548 58.9254 146.449C59.1413 146.349 59.3104 146.212 59.4325 146.036C59.5547 145.859 59.6158 145.656 59.6158 145.426C59.6158 145.193 59.5504 144.987 59.4197 144.808C59.2919 144.626 59.1072 144.484 58.8658 144.382C58.6271 144.28 58.343 144.229 58.0135 144.229H57.1996V142.874H58.0135C58.2919 142.874 58.5376 142.825 58.7507 142.729C58.9666 142.632 59.1342 142.499 59.2536 142.328C59.3729 142.155 59.4325 141.953 59.4325 141.723C59.4325 141.504 59.38 141.312 59.2749 141.148C59.1726 140.98 59.0277 140.849 58.8402 140.756C58.6555 140.662 58.4396 140.615 58.1925 140.615C57.9425 140.615 57.7138 140.661 57.5064 140.751C57.299 140.839 57.1328 140.966 57.0078 141.131C56.8828 141.295 56.8161 141.489 56.8075 141.71H55.0391C55.0476 141.207 55.1911 140.764 55.4695 140.381C55.7479 139.997 56.1229 139.697 56.5945 139.482C57.0689 139.263 57.6044 139.153 58.201 139.153C58.8033 139.153 59.3303 139.263 59.782 139.482C60.2337 139.7 60.5845 139.996 60.8345 140.368C61.0874 140.737 61.2124 141.152 61.2095 141.612C61.2124 142.101 61.0604 142.509 60.7536 142.835C60.4496 143.162 60.0533 143.369 59.5646 143.457V143.526C60.2067 143.608 60.6953 143.831 61.0305 144.195C61.3686 144.555 61.5362 145.007 61.5334 145.55C61.5362 146.047 61.3928 146.489 61.103 146.875C60.8161 147.261 60.4197 147.565 59.9141 147.787C59.4084 148.009 58.8288 148.119 58.1754 148.119Z" fill="white"/>
<rect x="31" y="36" width="38.1953" height="61.8" fill="#3793CB"/>
<ellipse cx="49.8047" cy="78.805" rx="11.8047" ry="11.805" fill="white"/>
<ellipse cx="50.296" cy="59.295" rx="7.29604" ry="7.295" fill="white"/>
</svg>
