<svg width="100" height="162" viewBox="0 0 100 162" fill="none" xmlns="http://www.w3.org/2000/svg">
<rect width="100" height="161.8" fill="#3793CB"/>
<rect x="19" y="17" width="61.8047" height="100" fill="white"/>
<rect x="39.9951" y="32" width="38.1953" height="61.8" transform="rotate(15 39.9951 32)" fill="#3793CB"/>
<line x1="39.1288" y1="45.5169" x2="69.1288" y2="53.5169" stroke="white"/>
<line x1="38.1288" y1="48.5169" x2="68.1288" y2="56.5169" stroke="white"/>
<line x1="37.1288" y1="51.5169" x2="67.1288" y2="59.5169" stroke="white"/>
<line x1="30.1288" y1="75.5169" x2="60.1288" y2="83.5169" stroke="white"/>
<line x1="31.1272" y1="72.5165" x2="50.1272" y2="77.5165" stroke="white"/>
<rect x="37.3018" y="54" width="13" height="16" transform="rotate(15.5963 37.3018 54)" fill="white"/>
<path d="M28.0172 123.273V132H26.4235L22.6266 126.507H22.5627V132H20.7175V123.273H22.3368L26.1039 128.761H26.1806V123.273H28.0172ZM32.465 132.128C31.8031 132.128 31.2306 131.987 30.7477 131.706C30.2676 131.422 29.8968 131.027 29.6355 130.521C29.3741 130.013 29.2434 129.423 29.2434 128.753C29.2434 128.077 29.3741 127.486 29.6355 126.98C29.8968 126.472 30.2676 126.077 30.7477 125.795C31.2306 125.511 31.8031 125.369 32.465 125.369C33.127 125.369 33.698 125.511 34.1781 125.795C34.661 126.077 35.0332 126.472 35.2946 126.98C35.5559 127.486 35.6866 128.077 35.6866 128.753C35.6866 129.423 35.5559 130.013 35.2946 130.521C35.0332 131.027 34.661 131.422 34.1781 131.706C33.698 131.987 33.127 132.128 32.465 132.128ZM32.4735 130.722C32.7747 130.722 33.0261 130.636 33.2278 130.466C33.4295 130.293 33.5815 130.057 33.6838 129.759C33.7889 129.46 33.8414 129.121 33.8414 128.74C33.8414 128.359 33.7889 128.02 33.6838 127.722C33.5815 127.423 33.4295 127.187 33.2278 127.014C33.0261 126.841 32.7747 126.754 32.4735 126.754C32.1696 126.754 31.9139 126.841 31.7065 127.014C31.502 127.187 31.3471 127.423 31.242 127.722C31.1397 128.02 31.0886 128.359 31.0886 128.74C31.0886 129.121 31.1397 129.46 31.242 129.759C31.3471 130.057 31.502 130.293 31.7065 130.466C31.9139 130.636 32.1696 130.722 32.4735 130.722ZM40.3485 125.455V126.818H36.4068V125.455H40.3485ZM37.3017 123.886H39.117V129.989C39.117 130.156 39.1426 130.287 39.1937 130.381C39.2449 130.472 39.3159 130.536 39.4068 130.572C39.5005 130.609 39.6085 130.628 39.7306 130.628C39.8159 130.628 39.9011 130.621 39.9863 130.607C40.0716 130.589 40.1369 130.577 40.1824 130.568L40.4679 131.919C40.377 131.947 40.2491 131.98 40.0843 132.017C39.9196 132.057 39.7193 132.081 39.4835 132.089C39.046 132.107 38.6625 132.048 38.3329 131.915C38.0062 131.781 37.752 131.574 37.5701 131.293C37.3883 131.011 37.2988 130.656 37.3017 130.227V123.886ZM44.3425 132V123.273H50.1209V124.794H46.1877V126.874H49.7374V128.395H46.1877V132H44.3425ZM53.8049 132.128C53.1429 132.128 52.5705 131.987 52.0875 131.706C51.6074 131.422 51.2367 131.027 50.9753 130.521C50.714 130.013 50.5833 129.423 50.5833 128.753C50.5833 128.077 50.714 127.486 50.9753 126.98C51.2367 126.472 51.6074 126.077 52.0875 125.795C52.5705 125.511 53.1429 125.369 53.8049 125.369C54.4668 125.369 55.0378 125.511 55.5179 125.795C56.0009 126.077 56.373 126.472 56.6344 126.98C56.8958 127.486 57.0265 128.077 57.0265 128.753C57.0265 129.423 56.8958 130.013 56.6344 130.521C56.373 131.027 56.0009 131.422 55.5179 131.706C55.0378 131.987 54.4668 132.128 53.8049 132.128ZM53.8134 130.722C54.1145 130.722 54.3659 130.636 54.5676 130.466C54.7694 130.293 54.9213 130.057 55.0236 129.759C55.1287 129.46 55.1813 129.121 55.1813 128.74C55.1813 128.359 55.1287 128.02 55.0236 127.722C54.9213 127.423 54.7694 127.187 54.5676 127.014C54.3659 126.841 54.1145 126.754 53.8134 126.754C53.5094 126.754 53.2537 126.841 53.0463 127.014C52.8418 127.187 52.687 127.423 52.5819 127.722C52.4796 128.02 52.4284 128.359 52.4284 128.74C52.4284 129.121 52.4796 129.46 52.5819 129.759C52.687 130.057 52.8418 130.293 53.0463 130.466C53.2537 130.636 53.5094 130.722 53.8134 130.722ZM62.4043 129.213V125.455H64.2196V132H62.4767V130.811H62.4086C62.2608 131.195 62.0151 131.503 61.6713 131.736C61.3304 131.969 60.9142 132.085 60.4228 132.085C59.9853 132.085 59.6003 131.986 59.2679 131.787C58.9355 131.588 58.6756 131.305 58.4881 130.939C58.3034 130.572 58.2097 130.134 58.2069 129.622V125.455H60.0222V129.298C60.025 129.685 60.1287 129.99 60.3333 130.214C60.5378 130.439 60.812 130.551 61.1557 130.551C61.3745 130.551 61.579 130.501 61.7694 130.402C61.9597 130.3 62.1131 130.149 62.2296 129.95C62.3489 129.751 62.4071 129.506 62.4043 129.213ZM67.487 128.216V132H65.6717V125.455H67.4018V126.609H67.4785C67.6234 126.229 67.8663 125.928 68.2072 125.706C68.5481 125.482 68.9615 125.369 69.4473 125.369C69.9018 125.369 70.2981 125.469 70.6362 125.668C70.9743 125.866 71.237 126.151 71.4245 126.52C71.612 126.886 71.7058 127.324 71.7058 127.832V132H69.8904V128.156C69.8933 127.756 69.791 127.443 69.5836 127.219C69.3762 126.991 69.0907 126.878 68.7271 126.878C68.4828 126.878 68.2669 126.93 68.0794 127.036C67.8947 127.141 67.7498 127.294 67.6447 127.496C67.5424 127.695 67.4899 127.935 67.487 128.216ZM75.5485 132.107C75.0513 132.107 74.601 131.979 74.1976 131.723C73.7971 131.464 73.4789 131.085 73.2431 130.585C73.0101 130.082 72.8936 129.466 72.8936 128.736C72.8936 127.986 73.0144 127.362 73.2559 126.865C73.4973 126.365 73.8184 125.991 74.2189 125.744C74.6223 125.494 75.0641 125.369 75.5442 125.369C75.9107 125.369 76.2161 125.432 76.4604 125.557C76.7076 125.679 76.9064 125.832 77.057 126.017C77.2104 126.199 77.3269 126.378 77.4064 126.554H77.4618V123.273H79.2729V132H77.4831V130.952H77.4064C77.3212 131.134 77.2005 131.314 77.0442 131.493C76.8908 131.669 76.6905 131.815 76.4434 131.932C76.199 132.048 75.9007 132.107 75.5485 132.107ZM76.1238 130.662C76.4164 130.662 76.6635 130.582 76.8652 130.423C77.0698 130.261 77.226 130.036 77.334 129.746C77.4448 129.456 77.5002 129.116 77.5002 128.727C77.5002 128.338 77.4462 128 77.3382 127.713C77.2303 127.426 77.074 127.205 76.8695 127.048C76.665 126.892 76.4164 126.814 76.1238 126.814C75.8255 126.814 75.574 126.895 75.3695 127.057C75.165 127.219 75.0101 127.443 74.905 127.73C74.7999 128.017 74.7473 128.349 74.7473 128.727C74.7473 129.108 74.7999 129.445 74.905 129.737C75.013 130.027 75.1678 130.254 75.3695 130.419C75.574 130.581 75.8255 130.662 76.1238 130.662Z" fill="white"/>
<path d="M38.3116 146.466V145.013L41.9551 139.273H43.2079V141.284H42.4664L40.1696 144.919V144.987H45.3471V146.466H38.3116ZM42.5005 148V146.023L42.5346 145.379V139.273H44.2647V148H42.5005ZM49.9984 148.192C49.2654 148.189 48.6348 148.009 48.1064 147.651C47.5808 147.293 47.176 146.774 46.8919 146.095C46.6106 145.416 46.4714 144.599 46.4743 143.645C46.4743 142.693 46.6149 141.882 46.8961 141.212C47.1802 140.541 47.585 140.031 48.1106 139.682C48.639 139.33 49.2683 139.153 49.9984 139.153C50.7285 139.153 51.3564 139.33 51.8819 139.682C52.4103 140.034 52.8166 140.545 53.1007 141.216C53.3848 141.884 53.5254 142.693 53.5226 143.645C53.5226 144.602 53.3805 145.42 53.0964 146.099C52.8152 146.778 52.4118 147.297 51.8862 147.655C51.3606 148.013 50.7314 148.192 49.9984 148.192ZM49.9984 146.662C50.4984 146.662 50.8975 146.411 51.1958 145.908C51.4941 145.405 51.6419 144.651 51.639 143.645C51.639 142.983 51.5708 142.432 51.4345 141.991C51.301 141.551 51.1106 141.22 50.8635 140.999C50.6191 140.777 50.3308 140.666 49.9984 140.666C49.5012 140.666 49.1035 140.915 48.8052 141.412C48.5069 141.909 48.3564 142.653 48.3535 143.645C48.3535 144.315 48.4203 144.875 48.5538 145.324C48.6902 145.77 48.8819 146.105 49.1291 146.33C49.3762 146.551 49.666 146.662 49.9984 146.662ZM54.7061 146.466V145.013L58.3496 139.273H59.6025V141.284H58.861L56.5641 144.919V144.987H61.7417V146.466H54.7061ZM58.8951 148V146.023L58.9292 145.379V139.273H60.6593V148H58.8951Z" fill="white"/>
</svg>
