<svg width="100" height="162" viewBox="0 0 100 162" fill="none" xmlns="http://www.w3.org/2000/svg">
<rect width="100" height="161.8" fill="#3793CB"/>
<rect x="19" y="17" width="61.8047" height="100" fill="white"/>
<path d="M20.0144 125.783C19.9803 125.439 19.834 125.172 19.5755 124.982C19.3169 124.791 18.9661 124.696 18.5229 124.696C18.2218 124.696 17.9675 124.739 17.7601 124.824C17.5527 124.906 17.3936 125.021 17.2828 125.169C17.1749 125.317 17.1209 125.484 17.1209 125.672C17.1152 125.828 17.1479 125.964 17.2189 126.081C17.2928 126.197 17.3936 126.298 17.5215 126.384C17.6493 126.466 17.7971 126.538 17.9647 126.601C18.1323 126.661 18.3113 126.712 18.5016 126.754L19.2857 126.942C19.6664 127.027 20.0158 127.141 20.334 127.283C20.6522 127.425 20.9277 127.599 21.1607 127.807C21.3936 128.014 21.574 128.259 21.7019 128.54C21.8326 128.821 21.8993 129.143 21.9022 129.507C21.8993 130.041 21.763 130.504 21.4931 130.896C21.226 131.286 20.8397 131.588 20.334 131.804C19.8311 132.017 19.2246 132.124 18.5144 132.124C17.8098 132.124 17.1962 132.016 16.6735 131.8C16.1536 131.584 15.7473 131.264 15.4547 130.841C15.165 130.415 15.013 129.888 14.9988 129.26H16.7843C16.8042 129.553 16.888 129.797 17.0357 129.993C17.1863 130.186 17.3865 130.332 17.6365 130.432C17.8894 130.528 18.1749 130.577 18.4931 130.577C18.8056 130.577 19.0769 130.531 19.307 130.44C19.54 130.349 19.7203 130.223 19.8482 130.061C19.976 129.899 20.04 129.713 20.04 129.503C20.04 129.307 19.9817 129.142 19.8652 129.009C19.7516 128.875 19.584 128.761 19.3624 128.668C19.1436 128.574 18.8752 128.489 18.557 128.412L17.6067 128.173C16.8709 127.994 16.29 127.714 15.8638 127.334C15.4377 126.953 15.226 126.44 15.2289 125.795C15.226 125.267 15.3667 124.805 15.6507 124.411C15.9377 124.016 16.3311 123.707 16.8311 123.486C17.3311 123.264 17.8993 123.153 18.5357 123.153C19.1834 123.153 19.7488 123.264 20.2317 123.486C20.7175 123.707 21.0953 124.016 21.3652 124.411C21.6351 124.805 21.7743 125.263 21.7828 125.783H20.0144ZM26.0922 132.128C25.4189 132.128 24.8393 131.991 24.3535 131.719C23.8706 131.443 23.4984 131.054 23.237 130.551C22.9757 130.045 22.845 129.447 22.845 128.757C22.845 128.084 22.9757 127.493 23.237 126.984C23.4984 126.476 23.8663 126.08 24.3407 125.795C24.818 125.511 25.3777 125.369 26.0197 125.369C26.4515 125.369 26.8535 125.439 27.2257 125.578C27.6007 125.714 27.9274 125.92 28.2058 126.196C28.487 126.472 28.7058 126.818 28.862 127.236C29.0183 127.651 29.0964 128.136 29.0964 128.693V129.192H23.5694V128.067H27.3876C27.3876 127.805 27.3308 127.574 27.2172 127.372C27.1035 127.17 26.9458 127.013 26.7441 126.899C26.5453 126.783 26.3137 126.724 26.0495 126.724C25.774 126.724 25.5297 126.788 25.3166 126.916C25.1064 127.041 24.9416 127.21 24.8223 127.423C24.7029 127.634 24.6419 127.868 24.639 128.126V129.196C24.639 129.52 24.6987 129.8 24.818 130.036C24.9402 130.271 25.112 130.453 25.3336 130.581C25.5552 130.709 25.818 130.773 26.122 130.773C26.3237 130.773 26.5083 130.744 26.676 130.688C26.8436 130.631 26.987 130.545 27.1064 130.432C27.2257 130.318 27.3166 130.179 27.3791 130.014L29.0581 130.125C28.9728 130.528 28.7981 130.881 28.5339 131.182C28.2725 131.48 27.9345 131.713 27.5197 131.881C27.1078 132.045 26.6319 132.128 26.0922 132.128ZM30.2811 132V125.455H32.041V126.597H32.1092C32.2285 126.19 32.4288 125.884 32.71 125.676C32.9913 125.466 33.3152 125.361 33.6816 125.361C33.7725 125.361 33.8706 125.366 33.9757 125.378C34.0808 125.389 34.1731 125.405 34.2527 125.425V127.036C34.1674 127.01 34.0495 126.987 33.899 126.967C33.7484 126.947 33.6106 126.938 33.4856 126.938C33.2186 126.938 32.9799 126.996 32.7697 127.112C32.5623 127.226 32.3975 127.385 32.2754 127.589C32.1561 127.794 32.0964 128.03 32.0964 128.297V132H30.2811ZM41.4927 125.455L39.2044 132H37.1589L34.8706 125.455H36.7882L38.1475 130.138H38.2157L39.5708 125.455H41.4927ZM45.1937 132.128C44.5204 132.128 43.9409 131.991 43.4551 131.719C42.9721 131.443 42.6 131.054 42.3386 130.551C42.0772 130.045 41.9466 129.447 41.9466 128.757C41.9466 128.084 42.0772 127.493 42.3386 126.984C42.6 126.476 42.9679 126.08 43.4423 125.795C43.9196 125.511 44.4792 125.369 45.1213 125.369C45.5531 125.369 45.9551 125.439 46.3272 125.578C46.7022 125.714 47.0289 125.92 47.3074 126.196C47.5886 126.472 47.8074 126.818 47.9636 127.236C48.1199 127.651 48.198 128.136 48.198 128.693V129.192H42.671V128.067H46.4892C46.4892 127.805 46.4324 127.574 46.3187 127.372C46.2051 127.17 46.0474 127.013 45.8457 126.899C45.6468 126.783 45.4153 126.724 45.1511 126.724C44.8755 126.724 44.6312 126.788 44.4181 126.916C44.2079 127.041 44.0431 127.21 43.9238 127.423C43.8045 127.634 43.7434 127.868 43.7406 128.126V129.196C43.7406 129.52 43.8002 129.8 43.9196 130.036C44.0417 130.271 44.2136 130.453 44.4352 130.581C44.6568 130.709 44.9196 130.773 45.2235 130.773C45.4252 130.773 45.6099 130.744 45.7775 130.688C45.9451 130.631 46.0886 130.545 46.2079 130.432C46.3272 130.318 46.4181 130.179 46.4806 130.014L48.1596 130.125C48.0744 130.528 47.8997 130.881 47.6355 131.182C47.3741 131.48 47.036 131.713 46.6213 131.881C46.2093 132.045 45.7335 132.128 45.1937 132.128ZM49.3826 132V125.455H51.1426V126.597H51.2108C51.3301 126.19 51.5304 125.884 51.8116 125.676C52.0929 125.466 52.4167 125.361 52.7832 125.361C52.8741 125.361 52.9721 125.366 53.0772 125.378C53.1824 125.389 53.2747 125.405 53.3542 125.425V127.036C53.269 127.01 53.1511 126.987 53.0005 126.967C52.85 126.947 52.7122 126.938 52.5872 126.938C52.3201 126.938 52.0815 126.996 51.8713 127.112C51.6639 127.226 51.4991 127.385 51.377 127.589C51.2576 127.794 51.198 128.03 51.198 128.297V132H49.3826ZM57.1042 132V123.273H62.9849V124.794H58.9494V126.874H62.6824V128.395H58.9494V130.479H63.002V132H57.1042ZM64.4178 132V125.455H66.1777V126.597H66.2459C66.3652 126.19 66.5655 125.884 66.8468 125.676C67.128 125.466 67.4519 125.361 67.8184 125.361C67.9093 125.361 68.0073 125.366 68.1124 125.378C68.2175 125.389 68.3098 125.405 68.3894 125.425V127.036C68.3042 127.01 68.1863 126.987 68.0357 126.967C67.8851 126.947 67.7473 126.938 67.6223 126.938C67.3553 126.938 67.1167 126.996 66.9064 127.112C66.699 127.226 66.5343 127.385 66.4121 127.589C66.2928 127.794 66.2331 128.03 66.2331 128.297V132H64.4178ZM69.3279 132V125.455H71.0879V126.597H71.1561C71.2754 126.19 71.4757 125.884 71.7569 125.676C72.0382 125.466 72.362 125.361 72.7285 125.361C72.8194 125.361 72.9174 125.366 73.0225 125.378C73.1277 125.389 73.22 125.405 73.2995 125.425V127.036C73.2143 127.01 73.0964 126.987 72.9458 126.967C72.7953 126.947 72.6575 126.938 72.5325 126.938C72.2654 126.938 72.0268 126.996 71.8166 127.112C71.6092 127.226 71.4444 127.385 71.3223 127.589C71.2029 127.794 71.1433 128.03 71.1433 128.297V132H69.3279ZM76.8908 132.128C76.2289 132.128 75.6564 131.987 75.1735 131.706C74.6934 131.422 74.3226 131.027 74.0613 130.521C73.7999 130.013 73.6692 129.423 73.6692 128.753C73.6692 128.077 73.7999 127.486 74.0613 126.98C74.3226 126.472 74.6934 126.077 75.1735 125.795C75.6564 125.511 76.2289 125.369 76.8908 125.369C77.5527 125.369 78.1238 125.511 78.6039 125.795C79.0868 126.077 79.459 126.472 79.7203 126.98C79.9817 127.486 80.1124 128.077 80.1124 128.753C80.1124 129.423 79.9817 130.013 79.7203 130.521C79.459 131.027 79.0868 131.422 78.6039 131.706C78.1238 131.987 77.5527 132.128 76.8908 132.128ZM76.8993 130.722C77.2005 130.722 77.4519 130.636 77.6536 130.466C77.8553 130.293 78.0073 130.057 78.1096 129.759C78.2147 129.46 78.2672 129.121 78.2672 128.74C78.2672 128.359 78.2147 128.02 78.1096 127.722C78.0073 127.423 77.8553 127.187 77.6536 127.014C77.4519 126.841 77.2005 126.754 76.8993 126.754C76.5953 126.754 76.3397 126.841 76.1323 127.014C75.9277 127.187 75.7729 127.423 75.6678 127.722C75.5655 128.02 75.5144 128.359 75.5144 128.74C75.5144 129.121 75.5655 129.46 75.6678 129.759C75.7729 130.057 75.9277 130.293 76.1323 130.466C76.3397 130.636 76.5953 130.722 76.8993 130.722ZM81.2928 132V125.455H83.0527V126.597H83.1209C83.2402 126.19 83.4405 125.884 83.7218 125.676C84.003 125.466 84.3269 125.361 84.6934 125.361C84.7843 125.361 84.8823 125.366 84.9874 125.378C85.0925 125.389 85.1848 125.405 85.2644 125.425V127.036C85.1792 127.01 85.0613 126.987 84.9107 126.967C84.7601 126.947 84.6223 126.938 84.4973 126.938C84.2303 126.938 83.9917 126.996 83.7814 127.112C83.574 127.226 83.4093 127.385 83.2871 127.589C83.1678 127.794 83.1081 128.03 83.1081 128.297V132H81.2928Z" fill="white"/>
<path d="M41.766 148.119C41.1637 148.119 40.6268 148.009 40.1552 147.787C39.6864 147.565 39.3143 147.26 39.0387 146.871C38.7631 146.482 38.6197 146.036 38.6083 145.533H40.3981C40.418 145.871 40.56 146.145 40.8242 146.355C41.0884 146.565 41.4023 146.67 41.766 146.67C42.0558 146.67 42.3114 146.607 42.533 146.479C42.7575 146.348 42.9322 146.168 43.0572 145.938C43.185 145.705 43.2489 145.437 43.2489 145.136C43.2489 144.83 43.1836 144.56 43.0529 144.327C42.9251 144.094 42.7475 143.912 42.5202 143.781C42.293 143.651 42.033 143.584 41.7404 143.581C41.4847 143.581 41.2362 143.634 40.9947 143.739C40.756 143.844 40.57 143.987 40.4364 144.169L38.7958 143.875L39.2092 139.273H44.5444V140.781H40.7305L40.5046 142.967H40.5558C40.7092 142.751 40.9407 142.572 41.2504 142.43C41.56 142.288 41.9066 142.217 42.2901 142.217C42.8157 142.217 43.2844 142.341 43.6964 142.588C44.1083 142.835 44.4336 143.175 44.6722 143.607C44.9109 144.036 45.0288 144.53 45.0259 145.089C45.0288 145.678 44.8924 146.2 44.6168 146.658C44.3441 147.112 43.962 147.47 43.4705 147.732C42.9819 147.99 42.4137 148.119 41.766 148.119ZM49.7347 148.192C49.0018 148.189 48.3711 148.009 47.8427 147.651C47.3171 147.293 46.9123 146.774 46.6282 146.095C46.3469 145.416 46.2077 144.599 46.2106 143.645C46.2106 142.693 46.3512 141.882 46.6325 141.212C46.9165 140.541 47.3214 140.031 47.8469 139.682C48.3754 139.33 49.0046 139.153 49.7347 139.153C50.4648 139.153 51.0927 139.33 51.6183 139.682C52.1467 140.034 52.5529 140.545 52.837 141.216C53.1211 141.884 53.2617 142.693 53.2589 143.645C53.2589 144.602 53.1168 145.42 52.8327 146.099C52.5515 146.778 52.1481 147.297 51.6225 147.655C51.0969 148.013 50.4677 148.192 49.7347 148.192ZM49.7347 146.662C50.2347 146.662 50.6339 146.411 50.9322 145.908C51.2305 145.405 51.3782 144.651 51.3754 143.645C51.3754 142.983 51.3072 142.432 51.1708 141.991C51.0373 141.551 50.8469 141.22 50.5998 140.999C50.3555 140.777 50.0671 140.666 49.7347 140.666C49.2376 140.666 48.8398 140.915 48.5415 141.412C48.2433 141.909 48.0927 142.653 48.0898 143.645C48.0898 144.315 48.1566 144.875 48.2901 145.324C48.4265 145.77 48.6183 146.105 48.8654 146.33C49.1126 146.551 49.4023 146.662 49.7347 146.662ZM57.9964 148.192C57.2635 148.189 56.6328 148.009 56.1044 147.651C55.5788 147.293 55.174 146.774 54.8899 146.095C54.6087 145.416 54.4695 144.599 54.4723 143.645C54.4723 142.693 54.6129 141.882 54.8942 141.212C55.1783 140.541 55.5831 140.031 56.1087 139.682C56.6371 139.33 57.2663 139.153 57.9964 139.153C58.7266 139.153 59.3544 139.33 59.88 139.682C60.4084 140.034 60.8146 140.545 61.0987 141.216C61.3828 141.884 61.5234 142.693 61.5206 143.645C61.5206 144.602 61.3786 145.42 61.0945 146.099C60.8132 146.778 60.4098 147.297 59.8842 147.655C59.3587 148.013 58.7294 148.192 57.9964 148.192ZM57.9964 146.662C58.4964 146.662 58.8956 146.411 59.1939 145.908C59.4922 145.405 59.6399 144.651 59.6371 143.645C59.6371 142.983 59.5689 142.432 59.4325 141.991C59.299 141.551 59.1087 141.22 58.8615 140.999C58.6172 140.777 58.3288 140.666 57.9964 140.666C57.4993 140.666 57.1016 140.915 56.8033 141.412C56.505 141.909 56.3544 142.653 56.3516 143.645C56.3516 144.315 56.4183 144.875 56.5518 145.324C56.6882 145.77 56.88 146.105 57.1271 146.33C57.3743 146.551 57.6641 146.662 57.9964 146.662Z" fill="white"/>
<rect x="31" y="36" width="38.1953" height="61.8" fill="#3793CB"/>
<line x1="37" y1="47" x2="64" y2="47" stroke="white" stroke-width="4"/>
<line x1="37" y1="53" x2="64" y2="53" stroke="white" stroke-width="4"/>
<line x1="37" y1="82" x2="64" y2="82" stroke="white" stroke-width="10"/>
<line x1="37" y1="66" x2="64" y2="66" stroke="white" stroke-width="20"/>
<circle cx="40" cy="47" r="1" fill="#3793CB"/>
<circle cx="40" cy="53" r="1" fill="#3793CB"/>
<circle cx="43" cy="47" r="1" fill="#3793CB"/>
<circle cx="43" cy="53" r="1" fill="#3793CB"/>
<circle cx="46" cy="47" r="1" fill="#3793CB"/>
<circle cx="46" cy="53" r="1" fill="#3793CB"/>
<circle cx="49" cy="47" r="1" fill="#3793CB"/>
<circle cx="49" cy="53" r="1" fill="#3793CB"/>
<circle cx="60" cy="82" r="3" fill="#3793CB"/>
</svg>
